<?xml version="1.0" encoding="utf-8"?><svg xmlns="http://www.w3.org/2000/svg" xmlns:xlink="http://www.w3.org/1999/xlink" width="336" height="333" preserveAspectRatio="xMidYMid" viewBox="0 0 336 333" style="z-index:1;margin-right:-2px;display:block;background-repeat-y:initial;background-repeat-x:initial;animation-play-state:paused" ><g transform="translate(168,166.5) scale(1,1) translate(-168,-166.5)" style="transform:matrix(1, 0, 0, 1, 0, 0);animation-play-state:paused" ><linearGradient id="lg-0.781754609707974" x1="0" x2="1" y1="0" y2="0" style="animation-play-state:paused" ><stop stop-color="#f36a3e" offset="0" style="animation-play-state:paused" ></stop>

  
<stop stop-color="#f4aa08" offset="1" style="animation-play-state:paused" ></stop></linearGradient>
<path d="M 0 0 L 0 98.3895 Q 84 138.854 168 111.873 T 336 200.871 L 336 0 Z" fill="url(#lg-0.781754609707974)" opacity="0.4" style="opacity:0.4;animation-play-state:paused" ></path>
<path d="M 0 0 L 0 115.707 Q 84 157.087 168 138.146 T 336 129.842 L 336 0 Z" fill="url(#lg-0.781754609707974)" opacity="0.4" style="opacity:0.4;animation-play-state:paused" ></path>
<path d="M 0 0 L 0 145.335 Q 84 171.274 168 144.372 T 336 108.628 L 336 0 Z" fill="url(#lg-0.781754609707974)" opacity="0.4" style="opacity:0.4;animation-play-state:paused" ></path>
<path d="M 0 0 L 0 92.7778 Q 84 135.084 168 115.398 T 336 76.1896 L 336 0 Z" fill="url(#lg-0.781754609707974)" opacity="0.4" style="opacity:0.4;animation-play-state:paused" ></path></g></svg>